<svg width="34" height="34" viewBox="0 0 34 34" fill="none" xmlns="http://www.w3.org/2000/svg">
<path d="M15.871 5.42965C15.9754 5.7081 16.2539 5.88212 16.5323 5.88212C16.8108 5.88212 17.0892 5.7081 17.1936 5.42965L18.551 2.33197C18.7947 1.80988 18.7251 1.21819 18.4118 0.76572C18.0986 0.278444 17.5765 0 17.0196 0H16.0102C15.4533 0 14.9313 0.278444 14.618 0.76572C14.3048 1.253 14.27 1.84469 14.4788 2.33197L15.871 5.42965Z" fill="#F5B123"/>
<path d="M7.69206 5.25562L10.4417 7.27434C10.5809 7.37875 10.7201 7.41356 10.8594 7.41356C10.9986 7.41356 11.103 7.37875 11.2074 7.30914C11.451 7.16992 11.5903 6.89148 11.5555 6.61303L11.1726 3.23691C11.103 2.68002 10.7897 2.19274 10.2677 1.9491C9.78038 1.70547 9.15389 1.70547 8.66661 1.98391L7.83128 2.47119C7.344 2.74963 7.03075 3.27171 6.99595 3.8286C6.96114 4.38549 7.20478 4.90757 7.69206 5.25562Z" fill="#F5B123"/>
<path d="M3.23702 11.2075L6.61315 11.5904C6.64795 11.5904 6.68276 11.5904 6.68276 11.5904C6.9264 11.5904 7.17004 11.4512 7.30926 11.2423C7.44848 10.9987 7.44848 10.6854 7.27445 10.4418L5.25574 7.69217C4.90768 7.2397 4.3856 6.99606 3.82871 7.03087C3.27182 7.06567 2.74974 7.37892 2.4713 7.8662L1.94922 8.73634C1.67077 9.22361 1.63597 9.8153 1.91441 10.3374C2.15805 10.7899 2.64533 11.1379 3.23702 11.2075Z" fill="#F5B123"/>
<path d="M5.42965 17.194C5.7081 17.0895 5.84732 16.8111 5.84732 16.5327C5.84732 16.2542 5.67329 15.9758 5.42965 15.8714L2.33197 14.5139C1.80988 14.2703 1.21819 14.3399 0.76572 14.6532C0.278444 14.9664 0 15.4885 0 16.0454V17.0547C0 17.6116 0.278444 18.1337 0.76572 18.447C1.04416 18.621 1.35741 18.7254 1.67066 18.7254C1.9143 18.7254 2.12313 18.6906 2.33197 18.5862L5.42965 17.194Z" fill="#F5B123"/>
<path d="M7.30914 21.858C7.16992 21.6143 6.89148 21.4751 6.61303 21.5099L3.23691 21.8928C2.68002 21.9624 2.19274 22.2757 1.9491 22.7977C1.70547 23.285 1.70547 23.8767 1.98391 24.3988L2.47119 25.2341C2.74963 25.7214 3.27171 26.0346 3.8286 26.0694C3.8634 26.0694 3.89821 26.0694 3.93301 26.0694C4.4551 26.0694 4.94237 25.8258 5.29043 25.4081L7.30914 22.6585C7.44837 22.4149 7.44837 22.1016 7.30914 21.858Z" fill="#F5B123"/>
<path d="M10.4069 25.7907L7.65726 27.8094C7.20479 28.1574 6.96115 28.6795 6.99596 29.2364C7.03076 29.7933 7.34401 30.3154 7.83129 30.5938L8.70142 31.1159C8.94506 31.2551 9.25831 31.3247 9.53675 31.3247C9.78039 31.3247 10.0588 31.2551 10.3025 31.1507C10.7898 30.9071 11.1378 30.4198 11.2074 29.8629L11.5903 26.4868C11.6251 26.2083 11.4859 25.9299 11.2422 25.7907C10.9638 25.6166 10.6505 25.6166 10.4069 25.7907Z" fill="#F5B123"/>
<path d="M17.1942 27.6357C17.0898 27.3572 16.8113 27.218 16.5329 27.218C16.2545 27.218 15.976 27.392 15.8716 27.6705L14.5142 30.7682C14.2705 31.2903 14.3402 31.882 14.6534 32.3344C14.9667 32.8217 15.4887 33.1001 16.0456 33.1001H17.055C17.6119 33.1001 18.134 32.8217 18.4472 32.3344C18.7604 31.8471 18.7953 31.2555 18.5864 30.7682L17.1942 27.6357Z" fill="#F5B123"/>
<path d="M25.3727 27.8095L22.6231 25.7908C22.3795 25.6168 22.0662 25.582 21.8226 25.756C21.5789 25.8952 21.4397 26.1737 21.4745 26.4521L21.8574 29.8283C21.927 30.3851 22.2403 30.8724 22.7623 31.1161C23.006 31.2205 23.2496 31.2901 23.5281 31.2901C23.8065 31.2901 24.1197 31.2205 24.3634 31.0813L25.2335 30.5592C25.7208 30.2807 26.034 29.7586 26.0689 29.2018C26.1037 28.6797 25.86 28.1576 25.3727 27.8095Z" fill="#F5B123"/>
<path d="M29.8279 21.8579L26.4518 21.475C26.1734 21.4402 25.8949 21.5794 25.7557 21.8231C25.6165 22.0667 25.6165 22.38 25.7905 22.6236L27.8092 25.3732C28.1225 25.7909 28.6098 26.0345 29.1666 26.0345C29.2014 26.0345 29.2362 26.0345 29.2711 26.0345C29.8279 25.9997 30.35 25.6865 30.6285 25.1992L31.1505 24.3291C31.429 23.8418 31.4638 23.2501 31.1854 22.728C30.9069 22.2755 30.4196 21.9275 29.8279 21.8579Z" fill="#F5B123"/>
<path d="M32.2994 14.6183C31.8121 14.305 31.2204 14.2702 30.7331 14.479L27.6354 15.8365C27.357 15.9409 27.2178 16.2193 27.2178 16.4978C27.2178 16.7762 27.3918 17.0546 27.6354 17.1591L30.7331 18.5165C30.942 18.6209 31.1856 18.6557 31.3944 18.6557C31.7077 18.6557 32.0209 18.5513 32.2994 18.3773C32.7866 18.064 33.0651 17.5419 33.0651 16.985V15.9757C33.0651 15.4536 32.7866 14.9315 32.2994 14.6183Z" fill="#F5B123"/>
<path d="M25.7557 11.2072C25.8949 11.4508 26.1386 11.5552 26.3822 11.5552C26.417 11.5552 26.4518 11.5552 26.4518 11.5552L29.8279 11.1724C30.3848 11.1028 30.8721 10.7895 31.1157 10.2674C31.3594 9.78015 31.3594 9.18846 31.0809 8.66637L30.5937 7.83104C30.3152 7.34377 29.7931 7.03052 29.2362 6.99571C28.6794 6.96091 28.1225 7.20454 27.8092 7.65702L25.7905 10.4066C25.6165 10.6503 25.6165 10.9635 25.7557 11.2072Z" fill="#F5B123"/>
<path d="M22.2403 7.41367C22.3795 7.41367 22.5535 7.37887 22.6579 7.27445L25.4075 5.25574C25.86 4.90768 26.1037 4.3856 26.0689 3.82871C26.034 3.27182 25.7208 2.74974 25.2335 2.4713L24.3634 1.94922C23.8761 1.67077 23.2844 1.63597 22.7623 1.91441C22.2751 2.15805 21.927 2.64533 21.8574 3.20221L21.4745 6.57834C21.4397 6.85679 21.5789 7.13523 21.8226 7.27445C21.9618 7.37887 22.101 7.41367 22.2403 7.41367Z" fill="#F5B123"/>
<path d="M16.5326 25.1644C21.2998 25.1644 25.1644 21.2998 25.1644 16.5326C25.1644 11.7654 21.2998 7.90088 16.5326 7.90088C11.7654 7.90088 7.90088 11.7654 7.90088 16.5326C7.90088 21.2998 11.7654 25.1644 16.5326 25.1644Z" fill="#F5B123"/>
</svg>
